<?xml version="1.0" encoding="UTF-8"?>
<svg xmlns="http://www.w3.org/2000/svg" xmlns:xlink="http://www.w3.org/1999/xlink" width="623.5pt" height="285.9pt" viewBox="0 0 623.5 285.9" version="1.1">
<defs>
<clipPath id="clip1">
  <path d="M 0 0 L 623.5 0 L 623.5 285.898438 L 0 285.898438 Z M 0 0 "/>
</clipPath>
</defs>
<g id="surface1">
<g clip-path="url(#clip1)" clip-rule="nonzero">
<path style="fill-rule:evenodd;fill:rgb(10.594177%,9.812927%,9.423828%);fill-opacity:1;stroke-width:2;stroke-linecap:butt;stroke-linejoin:miter;stroke:rgb(0%,0%,0%);stroke-opacity:1;stroke-miterlimit:4;" d="M 1845.273438 351.109375 C 1774.765625 149.039063 1582.148438 3.335938 1356.5625 3.335938 C 1071.601563 3.335938 839.179688 235.71875 839.179688 520.71875 C 839.179688 555.914063 842.734375 590.289063 849.492188 623.53125 L 790.351563 623.53125 L 776.289063 604.820313 L 749.765625 601.695313 C 728.59375 550.210938 685.078125 539.664063 626.367188 542.320313 L 178.203125 562.632813 C 150.46875 563.882813 123.007813 571.578125 95.429688 584.46875 L 71.992188 568.882813 C 40.78125 548.101563 10.976563 564.15625 7.96875 612.59375 L 1.71875 945.210938 C 1.132813 977.515625 11.015625 1003.101563 29.84375 1010.835938 L 56.367188 1021.773438 C 65.664063 1025.601563 69.6875 1018.140625 70.429688 1009.273438 L 73.554688 971.773438 C 100.9375 999.15625 143.125 1013.21875 200.039063 1013.960938 L 200.039063 1071.734375 C 173.90625 1085.054688 150.351563 1184.9375 153.203125 1251.34375 C 156.875 1337.164063 162.539063 1405.601563 204.0625 1411.65625 L 225.039063 1412.164063 L 253.984375 1505.835938 C 244.023438 1536.617188 246.25 1552.984375 248.476563 1587.085938 C 250.703125 1621.1875 264.765625 1646.460938 290.625 1649.546875 L 410.859375 1985.289063 L 410.976563 1985.40625 C 400.820313 1997.945313 393.4375 2010.523438 388.007813 2023.0625 C 384.296875 2033.140625 397.773438 2037.203125 417.65625 2033.140625 C 428.007813 2028.6875 440.234375 2026.617188 451.367188 2025.757813 L 451.484375 2025.914063 L 451.484375 2107.125 L 463.984375 2113.375 L 465.546875 2094.625 L 482.695313 2064.9375 C 581.601563 2224.585938 680.507813 2381.109375 779.414063 2531.851563 C 749.765625 2538.84375 689.0625 2542.476563 690.390625 2569.351563 C 710 2607.203125 735.351563 2642.242188 766.914063 2673.960938 C 835.664063 2743.0625 949.882813 2771.421875 1088.632813 2784.859375 C 1533.984375 2828.101563 1978.789063 2852.984375 2423.828125 2858.257813 L 3946.445313 2855.132813 C 4350.9375 2854.3125 4755.3125 2841.109375 5159.882813 2816.109375 C 5443.59375 2798.53125 5792.460938 2722.359375 5828.242188 2613.101563 C 5919.765625 2422.515625 5971.328125 2206.460938 6017.226563 1986.851563 C 6035.9375 1987.398438 6050.664063 1884.234375 6035.976563 1878.609375 L 6071.875 1293.492188 C 6083.789063 1099.351563 6078.164063 918.648438 6068.75 740.640625 L 6118.710938 810.953125 L 6140.585938 932.710938 C 6143.554688 949.234375 6147.070313 962.710938 6157.773438 962.4375 L 6206.171875 960.875 C 6227.617188 960.171875 6234.960938 950.640625 6234.296875 918.6875 L 6228.046875 628.179688 C 6224.140625 511.03125 6192.226563 495.015625 6062.5 486.109375 L 6062.070313 472.046875 L 6160.898438 472.046875 L 6160.898438 426.734375 L 6050 425.210938 C 6023.320313 424.859375 6010.976563 437.945313 6010.976563 459.585938 L 6010.976563 486.109375 L 5839.179688 487.671875 C 5805.234375 482.710938 5783.59375 496.8125 5765.78125 529.859375 L 5734.570313 573.570313 C 5696.054688 585.914063 5670.9375 610.601563 5654.921875 643.84375 L 5603.007813 644.46875 C 5603.203125 643.414063 5603.320313 642.28125 5603.320313 641.109375 C 5603.320313 632.164063 5596.601563 624.859375 5588.28125 624.859375 C 5580 624.859375 5573.242188 632.164063 5573.242188 641.109375 C 5573.242188 642.398438 5573.398438 643.648438 5573.671875 644.859375 L 5529.960938 645.40625 L 5461.796875 604.898438 C 5466.953125 575.71875 5469.6875 545.835938 5469.6875 515.210938 C 5469.6875 232.4375 5239.023438 1.773438 4956.171875 1.773438 C 4736.445313 1.773438 4548.242188 141.03125 4475.195313 335.71875 C 4387.070313 391.617188 4316.953125 473.53125 4275.859375 570.523438 L 4268.164063 570.445313 L 4241.601563 545.445313 L 3866.796875 548.570313 L 3866.796875 531.421875 L 3829.335938 531.421875 L 3829.335938 550.132813 L 2030.46875 557.789063 C 1988.554688 473.296875 1924.179688 401.773438 1845.273438 351.109375 Z M 1845.273438 351.109375 " transform="matrix(0.1,0,0,-0.1,0,285.9)"/>
</g>
<path style="fill-rule:evenodd;fill:rgb(100%,100%,100%);fill-opacity:1;stroke-width:2;stroke-linecap:butt;stroke-linejoin:miter;stroke:rgb(0%,0%,0%);stroke-opacity:1;stroke-miterlimit:4;" d="M 2171.328125 2563.53125 L 2756.445313 2563.53125 C 2794.453125 2563.53125 2825.585938 2532.4375 2825.585938 2494.351563 L 2825.585938 2059.351563 C 2825.585938 2021.34375 2794.453125 1990.210938 2756.445313 1990.210938 L 2171.328125 1990.210938 C 2133.320313 1990.210938 2102.1875 2021.34375 2102.1875 2059.351563 L 2102.1875 2494.351563 C 2102.1875 2532.4375 2133.320313 2563.53125 2171.328125 2563.53125 Z M 3050.390625 2563.53125 L 3669.804688 2563.53125 C 3705.351563 2563.53125 3734.453125 2534.46875 3734.453125 2498.921875 L 3734.453125 2054.859375 C 3734.453125 2019.3125 3705.351563 1990.210938 3669.804688 1990.210938 L 3050.390625 1990.210938 C 3014.84375 1990.210938 2985.78125 2019.3125 2985.78125 2054.859375 L 2985.78125 2498.921875 C 2985.78125 2534.46875 3014.84375 2563.53125 3050.390625 2563.53125 Z M 3956.71875 2563.53125 L 4575.898438 2563.53125 C 4609.101563 2563.53125 4635.078125 2536.34375 4636.289063 2503.101563 L 4653.125 2050.601563 C 4654.335938 2017.4375 4625.9375 1990.210938 4592.695313 1990.210938 L 3956.71875 1990.210938 C 3923.515625 1990.210938 3896.328125 2017.4375 3896.328125 2050.601563 L 3896.328125 2503.101563 C 3896.328125 2536.34375 3923.515625 2563.53125 3956.71875 2563.53125 Z M 1943.710938 1990.210938 L 659.6875 1990.210938 C 592.460938 1990.210938 554.101563 2060.5625 590 2119.3125 L 816.25 2489.742188 C 846.367188 2539.039063 879.023438 2563.53125 952.304688 2563.53125 L 1886.875 2563.53125 C 1918.125 2563.53125 1943.710938 2537.945313 1943.710938 2506.695313 Z M 1052.265625 2485.796875 L 890.703125 2496.265625 L 659.726563 2136.734375 C 621.210938 2076.773438 610.9375 2041.460938 683.4375 2041.460938 L 780 2041.460938 L 793.476563 2066.890625 L 805.429688 2069.9375 L 829.375 2042.984375 L 841.328125 2042.984375 Z M 1170.429688 2016.03125 L 1339.453125 2422.945313 L 1164.453125 2419.976563 L 987.929688 2111.8125 C 966.914063 2075.132813 980.390625 2053.960938 1016.367188 2041.460938 L 1085.15625 2017.554688 L 1112.109375 2017.554688 L 1122.578125 2032.515625 L 1133.046875 2037.007813 L 1150.976563 2016.03125 Z M 1486.054688 2430.914063 L 1381.367188 2430.914063 L 1206.328125 2013.0625 L 1486.054688 2013.0625 Z M 1916.875 2430.914063 L 1504.023438 2430.914063 L 1504.023438 2013.0625 L 1916.875 2013.0625 Z M 3926.40625 2430.914063 L 4357.382813 2430.914063 C 4378.476563 2430.914063 4395.742188 2413.648438 4395.742188 2392.554688 L 4395.742188 2219.664063 L 4386.71875 2219.664063 C 4379.414063 2219.664063 4373.4375 2213.6875 4373.4375 2206.421875 C 4373.4375 2199.117188 4379.414063 2193.101563 4386.71875 2193.101563 L 4395.742188 2193.101563 L 4395.742188 2023.726563 L 3964.765625 2023.726563 C 3943.671875 2023.726563 3926.40625 2040.992188 3926.40625 2062.046875 Z M 3055.664063 2430.914063 L 3575.46875 2430.914063 C 3596.757813 2430.914063 3614.140625 2413.492188 3614.140625 2392.242188 L 3614.140625 2219.664063 L 3604.765625 2219.664063 C 3597.460938 2219.664063 3591.523438 2213.6875 3591.523438 2206.421875 C 3591.523438 2199.117188 3597.460938 2193.101563 3604.765625 2193.101563 L 3614.140625 2193.101563 L 3614.140625 2023.726563 L 3055.664063 2023.726563 C 3034.414063 2023.726563 3016.992188 2041.109375 3016.992188 2062.398438 L 3016.992188 2392.242188 C 3016.992188 2413.492188 3034.414063 2430.914063 3055.664063 2430.914063 Z M 2305.117188 2430.914063 L 2788.75 2430.914063 L 2788.75 2058.726563 C 2788.75 2039.46875 2772.96875 2023.726563 2753.710938 2023.726563 L 2270.117188 2023.726563 L 2270.117188 2193.101563 L 2277.34375 2193.101563 C 2284.609375 2193.101563 2290.585938 2199.117188 2290.585938 2206.421875 C 2290.585938 2213.6875 2284.609375 2219.664063 2277.34375 2219.664063 L 2270.117188 2219.664063 L 2270.117188 2395.875 C 2270.117188 2415.132813 2285.859375 2430.914063 2305.117188 2430.914063 Z M 2305.117188 2430.914063 " transform="matrix(0.1,0,0,-0.1,0,285.9)"/>
<path style="fill-rule:evenodd;fill:rgb(100%,100%,100%);fill-opacity:1;stroke-width:2;stroke-linecap:butt;stroke-linejoin:miter;stroke:rgb(0%,0%,0%);stroke-opacity:1;stroke-miterlimit:4;" d="M 5577.1875 1818.6875 C 5577.226563 1818.960938 5577.226563 1819.351563 5577.226563 1819.703125 C 5577.226563 1829.195313 5571.289063 1836.890625 5563.984375 1836.890625 L 5136.40625 1836.890625 C 5129.140625 1836.890625 5123.164063 1829.195313 5123.164063 1819.703125 C 5123.164063 1819.351563 5123.203125 1818.960938 5123.203125 1818.6875 Z M 5577.1875 1818.6875 " transform="matrix(0.1,0,0,-0.1,0,285.9)"/>
<path style="fill-rule:evenodd;fill:rgb(100%,100%,100%);fill-opacity:1;stroke-width:2;stroke-linecap:butt;stroke-linejoin:miter;stroke:rgb(0%,0%,0%);stroke-opacity:1;stroke-miterlimit:4;" d="M 5577.1875 1754.039063 C 5577.226563 1754.351563 5577.226563 1754.703125 5577.226563 1755.054688 C 5577.226563 1764.546875 5571.289063 1772.28125 5563.984375 1772.28125 L 5136.40625 1772.28125 C 5129.140625 1772.28125 5123.164063 1764.546875 5123.164063 1755.054688 C 5123.164063 1754.703125 5123.203125 1754.351563 5123.203125 1754.039063 Z M 5577.1875 1754.039063 " transform="matrix(0.1,0,0,-0.1,0,285.9)"/>
<path style="fill-rule:evenodd;fill:rgb(100%,100%,100%);fill-opacity:1;stroke-width:2;stroke-linecap:butt;stroke-linejoin:miter;stroke:rgb(0%,0%,0%);stroke-opacity:1;stroke-miterlimit:4;" d="M 5577.1875 1689.351563 C 5577.226563 1689.703125 5577.226563 1690.054688 5577.226563 1690.40625 C 5577.226563 1699.898438 5571.289063 1707.632813 5563.984375 1707.632813 L 5136.40625 1707.632813 C 5129.140625 1707.632813 5123.164063 1699.898438 5123.164063 1690.40625 C 5123.164063 1690.054688 5123.203125 1689.703125 5123.203125 1689.351563 Z M 5577.1875 1689.351563 " transform="matrix(0.1,0,0,-0.1,0,285.9)"/>
<path style="fill-rule:evenodd;fill:rgb(100%,100%,100%);fill-opacity:1;stroke-width:2;stroke-linecap:butt;stroke-linejoin:miter;stroke:rgb(0%,0%,0%);stroke-opacity:1;stroke-miterlimit:4;" d="M 5577.1875 1624.742188 C 5577.226563 1625.054688 5577.226563 1625.40625 5577.226563 1625.757813 C 5577.226563 1635.210938 5571.289063 1642.984375 5563.984375 1642.984375 L 5136.40625 1642.984375 C 5129.140625 1642.984375 5123.164063 1635.210938 5123.164063 1625.757813 C 5123.164063 1625.40625 5123.203125 1625.054688 5123.203125 1624.742188 Z M 5577.1875 1624.742188 " transform="matrix(0.1,0,0,-0.1,0,285.9)"/>
<path style="fill-rule:evenodd;fill:rgb(100%,100%,100%);fill-opacity:1;stroke-width:2;stroke-linecap:butt;stroke-linejoin:miter;stroke:rgb(0%,0%,0%);stroke-opacity:1;stroke-miterlimit:4;" d="M 5577.1875 1560.09375 C 5577.226563 1560.40625 5577.226563 1560.757813 5577.226563 1561.109375 C 5577.226563 1570.601563 5571.289063 1578.335938 5563.984375 1578.335938 L 5136.40625 1578.335938 C 5129.140625 1578.335938 5123.164063 1570.601563 5123.164063 1561.109375 C 5123.164063 1560.757813 5123.203125 1560.40625 5123.203125 1560.09375 Z M 5577.1875 1560.09375 " transform="matrix(0.1,0,0,-0.1,0,285.9)"/>
<path style="fill-rule:evenodd;fill:rgb(100%,100%,100%);fill-opacity:1;stroke-width:2;stroke-linecap:butt;stroke-linejoin:miter;stroke:rgb(0%,0%,0%);stroke-opacity:1;stroke-miterlimit:4;" d="M 5577.1875 1495.40625 C 5577.226563 1495.757813 5577.226563 1496.109375 5577.226563 1496.460938 C 5577.226563 1505.953125 5571.289063 1513.6875 5563.984375 1513.6875 L 5136.40625 1513.6875 C 5129.140625 1513.6875 5123.164063 1505.953125 5123.164063 1496.460938 C 5123.164063 1496.109375 5123.203125 1495.757813 5123.203125 1495.40625 Z M 5577.1875 1495.40625 " transform="matrix(0.1,0,0,-0.1,0,285.9)"/>
<path style="fill-rule:evenodd;fill:rgb(100%,100%,100%);fill-opacity:1;stroke-width:2;stroke-linecap:butt;stroke-linejoin:miter;stroke:rgb(0%,0%,0%);stroke-opacity:1;stroke-miterlimit:4;" d="M 5577.1875 1430.757813 C 5577.226563 1431.109375 5577.226563 1431.460938 5577.226563 1431.8125 C 5577.226563 1441.304688 5571.289063 1449.039063 5563.984375 1449.039063 L 5136.40625 1449.039063 C 5129.140625 1449.039063 5123.164063 1441.304688 5123.164063 1431.8125 C 5123.164063 1431.460938 5123.203125 1431.109375 5123.203125 1430.757813 Z M 5577.1875 1430.757813 " transform="matrix(0.1,0,0,-0.1,0,285.9)"/>
<path style="fill-rule:evenodd;fill:rgb(100%,100%,100%);fill-opacity:1;stroke-width:2;stroke-linecap:butt;stroke-linejoin:miter;stroke:rgb(0%,0%,0%);stroke-opacity:1;stroke-miterlimit:4;" d="M 5577.1875 1366.109375 C 5577.226563 1366.460938 5577.226563 1366.8125 5577.226563 1367.164063 C 5577.226563 1376.65625 5571.289063 1384.351563 5563.984375 1384.351563 L 5136.40625 1384.351563 C 5129.140625 1384.351563 5123.164063 1376.65625 5123.164063 1367.164063 C 5123.164063 1366.8125 5123.203125 1366.460938 5123.203125 1366.109375 Z M 5577.1875 1366.109375 " transform="matrix(0.1,0,0,-0.1,0,285.9)"/>
<path style="fill-rule:evenodd;fill:rgb(100%,100%,100%);fill-opacity:1;stroke-width:2;stroke-linecap:butt;stroke-linejoin:miter;stroke:rgb(0%,0%,0%);stroke-opacity:1;stroke-miterlimit:4;" d="M 5577.1875 1301.460938 C 5577.226563 1301.8125 5577.226563 1302.164063 5577.226563 1302.515625 C 5577.226563 1312.007813 5571.289063 1319.742188 5563.984375 1319.742188 L 5136.40625 1319.742188 C 5129.140625 1319.742188 5123.164063 1312.007813 5123.164063 1302.515625 C 5123.164063 1302.164063 5123.203125 1301.8125 5123.203125 1301.460938 Z M 5577.1875 1301.460938 " transform="matrix(0.1,0,0,-0.1,0,285.9)"/>
<path style="fill-rule:evenodd;fill:rgb(100%,100%,100%);fill-opacity:1;stroke-width:2;stroke-linecap:butt;stroke-linejoin:miter;stroke:rgb(0%,0%,0%);stroke-opacity:1;stroke-miterlimit:4;" d="M 1852.65625 1659.46875 L 1918.75 1659.46875 C 1923.164063 1659.46875 1926.757813 1655.875 1926.757813 1651.460938 L 1926.757813 1613.648438 C 1926.757813 1609.234375 1923.164063 1605.601563 1918.75 1605.601563 L 1852.65625 1605.601563 C 1848.242188 1605.601563 1844.648438 1609.234375 1844.648438 1613.648438 L 1844.648438 1619.273438 C 1822.460938 1617.90625 1796.5625 1617.085938 1768.945313 1617.085938 C 1687.460938 1617.085938 1673.515625 1624.039063 1673.515625 1632.554688 C 1673.515625 1641.03125 1687.460938 1648.023438 1768.945313 1648.023438 C 1796.5625 1648.023438 1822.460938 1647.242188 1844.648438 1645.835938 L 1844.648438 1651.460938 C 1844.648438 1655.875 1848.242188 1659.46875 1852.65625 1659.46875 Z M 1852.65625 1659.46875 " transform="matrix(0.1,0,0,-0.1,0,285.9)"/>
<path style="fill-rule:evenodd;fill:rgb(100%,100%,100%);fill-opacity:1;stroke-width:2;stroke-linecap:butt;stroke-linejoin:miter;stroke:rgb(0%,0%,0%);stroke-opacity:1;stroke-miterlimit:4;" d="M 1345.3125 930.523438 C 1567.8125 930.523438 1749.257813 744.546875 1749.257813 516.460938 C 1749.257813 288.453125 1567.8125 102.476563 1345.3125 102.476563 C 1122.851563 102.476563 941.40625 288.453125 941.40625 516.460938 C 941.40625 744.546875 1122.851563 930.523438 1345.3125 930.523438 Z M 1345.3125 838.960938 C 1518.632813 838.960938 1660 694.117188 1660 516.460938 C 1660 338.84375 1518.632813 193.960938 1345.3125 193.960938 C 1172.03125 193.960938 1030.703125 338.84375 1030.703125 516.460938 C 1030.703125 694.117188 1172.03125 838.960938 1345.3125 838.960938 Z M 1345.3125 838.960938 " transform="matrix(0.1,0,0,-0.1,0,285.9)"/>
<path style="fill-rule:evenodd;fill:rgb(100%,100%,100%);fill-opacity:1;stroke-width:2;stroke-linecap:butt;stroke-linejoin:miter;stroke:rgb(0%,0%,0%);stroke-opacity:1;stroke-miterlimit:4;" d="M 1350.273438 726.890625 C 1460.9375 726.890625 1550.664063 634.976563 1550.664063 521.539063 C 1550.664063 408.101563 1460.9375 316.148438 1350.273438 316.148438 C 1239.570313 316.148438 1149.882813 408.101563 1149.882813 521.539063 C 1149.882813 634.976563 1239.570313 726.890625 1350.273438 726.890625 Z M 1350.273438 726.890625 " transform="matrix(0.1,0,0,-0.1,0,285.9)"/>
<path style="fill-rule:evenodd;fill:rgb(100%,100%,100%);fill-opacity:1;stroke-width:2;stroke-linecap:butt;stroke-linejoin:miter;stroke:rgb(0%,0%,0%);stroke-opacity:1;stroke-miterlimit:4;" d="M 137.03125 810.679688 L 123.632813 818.53125 L 97.96875 905.601563 C 132.1875 901.148438 166.445313 902.28125 200.703125 892.242188 L 200.703125 837.515625 C 175 833.0625 153.789063 824.117188 137.03125 810.679688 Z M 137.03125 810.679688 " transform="matrix(0.1,0,0,-0.1,0,285.9)"/>
<path style="fill-rule:evenodd;fill:rgb(100%,100%,100%);fill-opacity:1;stroke-width:2;stroke-linecap:butt;stroke-linejoin:miter;stroke:rgb(0%,0%,0%);stroke-opacity:1;stroke-miterlimit:4;" d="M 198.4375 958.101563 L 198.4375 978.179688 C 174.140625 976.929688 157.421875 970.445313 145.976563 961.460938 C 163.867188 962.4375 181.40625 961.460938 198.4375 958.101563 Z M 198.4375 958.101563 " transform="matrix(0.1,0,0,-0.1,0,285.9)"/>
<path style="fill-rule:evenodd;fill:rgb(100%,100%,100%);fill-opacity:1;stroke-width:2;stroke-linecap:butt;stroke-linejoin:miter;stroke:rgb(0%,0%,0%);stroke-opacity:1;stroke-miterlimit:4;" d="M 4961.328125 312.398438 C 5072.695313 312.398438 5163.515625 403.179688 5163.515625 514.585938 C 5163.515625 625.953125 5072.695313 716.773438 4961.328125 716.773438 C 4849.960938 716.773438 4759.140625 625.953125 4759.140625 514.585938 C 4759.140625 403.179688 4849.960938 312.398438 4961.328125 312.398438 Z M 4961.328125 312.398438 " transform="matrix(0.1,0,0,-0.1,0,285.9)"/>
<path style="fill-rule:evenodd;fill:rgb(100%,100%,100%);fill-opacity:1;stroke-width:2;stroke-linecap:butt;stroke-linejoin:miter;stroke:rgb(0%,0%,0%);stroke-opacity:1;stroke-miterlimit:4;" d="M 4966.40625 105.445313 C 5188.945313 105.445313 5370.46875 286.929688 5370.46875 509.46875 C 5370.46875 646.578125 5301.5625 768.101563 5196.640625 841.1875 L 4736.171875 841.1875 C 4631.25 768.101563 4562.382813 646.578125 4562.382813 509.46875 C 4562.382813 286.929688 4743.867188 105.445313 4966.40625 105.445313 Z M 4966.40625 193.570313 C 5140.429688 193.570313 5282.34375 335.484375 5282.34375 509.46875 C 5282.34375 683.492188 5140.429688 825.445313 4966.40625 825.445313 C 4792.382813 825.445313 4650.46875 683.492188 4650.46875 509.46875 C 4650.46875 335.484375 4792.382813 193.570313 4966.40625 193.570313 Z M 4966.40625 193.570313 " transform="matrix(0.1,0,0,-0.1,0,285.9)"/>
<path style="fill-rule:evenodd;fill:rgb(100%,100%,100%);fill-opacity:1;stroke-width:2;stroke-linecap:butt;stroke-linejoin:miter;stroke:rgb(0%,0%,0%);stroke-opacity:1;stroke-miterlimit:4;" d="M 1358.476563 785.132813 C 1425.703125 785.132813 1486.835938 757.554688 1531.71875 712.90625 L 1489.570313 704.664063 C 1452.1875 733.179688 1405.898438 750.171875 1355.859375 750.171875 C 1353.59375 750.171875 1351.289063 750.132813 1349.023438 750.054688 L 1327.929688 783.179688 C 1337.96875 784.429688 1348.125 785.132813 1358.476563 785.132813 Z M 1606.601563 550.679688 C 1607.109375 543.882813 1607.421875 536.890625 1607.421875 529.976563 C 1607.421875 462.671875 1581.757813 401.34375 1540 355.640625 L 1535.3125 382.59375 C 1563.4375 421.03125 1580.15625 468.6875 1580.15625 520.289063 C 1580.15625 526.226563 1579.921875 532.125 1579.492188 537.984375 Z M 1383.554688 276.109375 C 1375.3125 275.210938 1366.953125 274.78125 1358.476563 274.78125 C 1298.515625 274.78125 1243.4375 296.695313 1200.390625 333.101563 L 1223.4375 334.9375 C 1260.585938 306.890625 1306.40625 290.367188 1355.859375 290.367188 C 1360.078125 290.367188 1364.21875 290.484375 1368.398438 290.679688 Z M 1112.109375 493.335938 C 1110.429688 505.328125 1109.53125 517.515625 1109.53125 529.976563 C 1109.53125 593.21875 1132.226563 651.265625 1169.6875 695.953125 L 1172.929688 653.023438 C 1146.875 615.484375 1131.5625 569.664063 1131.5625 520.289063 C 1131.5625 517.828125 1131.601563 515.367188 1131.679688 512.945313 Z M 1112.109375 493.335938 " transform="matrix(0.1,0,0,-0.1,0,285.9)"/>
<path style="fill-rule:evenodd;fill:rgb(100%,100%,100%);fill-opacity:1;stroke-width:2;stroke-linecap:butt;stroke-linejoin:miter;stroke:rgb(0%,0%,0%);stroke-opacity:1;stroke-miterlimit:4;" d="M 5025.585938 280.914063 C 5094.921875 301.851563 5151.875 351.851563 5182.109375 416.65625 L 5152.5 404.039063 C 5125.976563 359.078125 5084.375 323.960938 5034.726563 305.796875 Z M 5197.148438 588.21875 C 5176.328125 666.109375 5119.140625 729.351563 5045.039063 758.570313 L 5061.5625 719.78125 C 5107.109375 695.992188 5143.671875 657.203125 5164.53125 610.015625 Z M 4875.703125 763.960938 C 4805.390625 741.382813 4748.359375 688.765625 4719.765625 621.34375 L 4759.804688 629.898438 C 4783.75 672.203125 4820.898438 706.109375 4865.546875 725.953125 Z M 4709.570313 453.765625 C 4730.117188 382.046875 4781.601563 323.140625 4848.59375 292.710938 L 4841.992188 323.6875 C 4801.484375 347.710938 4769.0625 383.960938 4749.84375 427.359375 Z M 4709.570313 453.765625 " transform="matrix(0.1,0,0,-0.1,0,285.9)"/>
<path style="fill-rule:evenodd;fill:rgb(10.594177%,9.812927%,9.423828%);fill-opacity:1;stroke-width:2;stroke-linecap:butt;stroke-linejoin:miter;stroke:rgb(0%,0%,0%);stroke-opacity:1;stroke-miterlimit:4;" d="M 4975.117188 554.351563 C 5006.640625 554.351563 5032.34375 528.648438 5032.34375 497.125 C 5032.34375 465.601563 5006.640625 439.898438 4975.117188 439.898438 C 4943.59375 439.898438 4917.890625 465.601563 4917.890625 497.125 C 4917.890625 528.648438 4943.59375 554.351563 4975.117188 554.351563 Z M 4975.117188 559.820313 C 5009.648438 559.820313 5037.8125 531.65625 5037.8125 497.125 C 5037.8125 462.59375 5009.648438 434.429688 4975.117188 434.429688 C 4940.585938 434.429688 4912.421875 462.59375 4912.421875 497.125 C 4912.421875 531.65625 4940.585938 559.820313 4975.117188 559.820313 Z M 4975.117188 541.460938 C 4979.414063 541.460938 4983.554688 540.875 4987.460938 539.742188 L 4974.921875 511.8125 L 4962.421875 539.625 C 4966.445313 540.835938 4970.703125 541.460938 4975.117188 541.460938 Z M 4998.710938 534.703125 C 5003.4375 531.695313 5007.539063 527.828125 5010.859375 523.335938 L 4990.390625 477.710938 L 4982.226563 495.914063 L 4967.617188 495.914063 L 4959.453125 477.710938 L 4939.140625 522.984375 C 4942.382813 527.554688 4946.523438 531.460938 4951.210938 534.429688 L 4967.617188 498.023438 L 4982.226563 498.023438 Z M 5017.890625 508.921875 C 5018.945313 505.171875 5019.492188 501.226563 5019.492188 497.125 C 5019.492188 479.742188 5009.375 464.625 4994.726563 457.359375 Z M 4987.34375 454.46875 C 4983.4375 453.375 4979.375 452.789063 4975.117188 452.789063 C 4970.742188 452.789063 4966.523438 453.414063 4962.539063 454.585938 L 4974.921875 482.164063 Z M 4954.960938 457.632813 C 4940.625 465.015625 4930.78125 479.9375 4930.78125 497.125 C 4930.78125 500.992188 4931.25 504.742188 4932.1875 508.335938 Z M 4954.960938 457.632813 " transform="matrix(0.1,0,0,-0.1,0,285.9)"/>
<path style="fill-rule:evenodd;fill:rgb(10.594177%,9.812927%,9.423828%);fill-opacity:1;stroke-width:2;stroke-linecap:butt;stroke-linejoin:miter;stroke:rgb(0%,0%,0%);stroke-opacity:1;stroke-miterlimit:4;" d="M 1330.078125 562.515625 C 1361.601563 562.515625 1387.304688 536.8125 1387.304688 505.289063 C 1387.304688 473.765625 1361.601563 448.0625 1330.078125 448.0625 C 1298.554688 448.0625 1272.851563 473.765625 1272.851563 505.289063 C 1272.851563 536.8125 1298.554688 562.515625 1330.078125 562.515625 Z M 1330.078125 567.984375 C 1364.609375 567.984375 1392.773438 539.820313 1392.773438 505.289063 C 1392.773438 470.71875 1364.609375 442.632813 1330.078125 442.632813 C 1295.546875 442.632813 1267.382813 470.71875 1267.382813 505.289063 C 1267.382813 539.820313 1295.546875 567.984375 1330.078125 567.984375 Z M 1330.078125 549.664063 C 1334.375 549.664063 1338.515625 549.039063 1342.421875 547.90625 L 1329.882813 519.976563 L 1317.382813 547.789063 C 1321.40625 548.960938 1325.664063 549.664063 1330.078125 549.664063 Z M 1353.632813 542.828125 C 1358.398438 539.859375 1362.5 535.992188 1365.820313 531.460938 L 1345.351563 485.914063 L 1337.1875 504.078125 L 1322.539063 504.078125 L 1314.414063 485.914063 L 1294.0625 531.148438 C 1297.34375 535.679688 1301.484375 539.625 1306.171875 542.632813 L 1322.539063 506.1875 L 1337.1875 506.1875 Z M 1372.851563 517.085938 C 1373.867188 513.335938 1374.453125 509.351563 1374.453125 505.289063 C 1374.453125 487.90625 1364.335938 472.789063 1349.6875 465.523438 Z M 1342.304688 462.671875 C 1338.398438 461.539063 1334.296875 460.953125 1330.078125 460.953125 C 1325.703125 460.953125 1321.484375 461.578125 1317.5 462.710938 L 1329.882813 490.328125 Z M 1309.921875 465.796875 C 1295.585938 473.101563 1285.703125 488.101563 1285.703125 505.289063 C 1285.703125 509.15625 1286.210938 512.90625 1287.148438 516.460938 Z M 1309.921875 465.796875 " transform="matrix(0.1,0,0,-0.1,0,285.9)"/>
</g>
</svg>
